<svg xmlns="http://www.w3.org/2000/svg" xmlns:xlink="http://www.w3.org/1999/xlink" width="38" height="38" viewBox="0 0 38 38"><defs><path id="cdnra" d="M107.25 4778a6.5 6.5 0 0 1 4.77 1.98 6.5 6.5 0 0 1 1.98 4.77v22.5a6.5 6.5 0 0 1-1.98 4.77 6.5 6.5 0 0 1-4.77 1.98h-4.4v-13.95h4.66l.7-5.43h-5.37v-3.47c0-.88.19-1.53.55-1.97.37-.44 1.09-.66 2.15-.66l2.86-.02v-4.85c-.99-.14-2.38-.21-4.17-.21-2.13 0-3.83.62-5.1 1.87-1.27 1.25-1.91 3.02-1.91 5.3v4h-4.69v5.44h4.69V4814H84.75a6.5 6.5 0 0 1-4.77-1.98 6.5 6.5 0 0 1-1.98-4.77v-22.5a6.5 6.5 0 0 1 1.98-4.77 6.5 6.5 0 0 1 4.77-1.98z"/></defs><g><g transform="translate(-77 -4777)"><use fill="#fff" fill-opacity="0" stroke="#004f9e" stroke-miterlimit="50" xlink:href="#cdnra"/></g></g></svg>