<svg xmlns="http://www.w3.org/2000/svg" xmlns:xlink="http://www.w3.org/1999/xlink" width="38" height="38" viewBox="0 0 38 38"><defs><path id="ui2qa" d="M237.22 4784.72c0 .6-.22 1.1-.64 1.52-.42.43-.93.64-1.53.64s-1.1-.21-1.52-.64a2.08 2.08 0 0 1-.64-1.52c0-.6.21-1.1.64-1.53.42-.42.93-.64 1.52-.64.6 0 1.1.22 1.53.64.42.42.64.93.64 1.53zm-3.13 11.28c0 2.87-1 5.3-3.02 7.31-2 2.01-4.44 3.02-7.3 3.02-2.87 0-5.3-1-7.31-3.02-2.01-2-3.02-4.44-3.02-7.3 0-2.87 1-5.3 3.02-7.31 2-2.01 4.44-3.02 7.3-3.02 2.87 0 5.3 1 7.31 3.02 2.01 2 3.02 4.44 3.02 7.3zm5.93-16.02a6.5 6.5 0 0 0-4.77-1.98h-22.5a6.5 6.5 0 0 0-4.77 1.98 6.5 6.5 0 0 0-1.98 4.77v22.5a6.5 6.5 0 0 0 1.98 4.77 6.5 6.5 0 0 0 4.77 1.98h22.5a6.5 6.5 0 0 0 4.77-1.98 6.5 6.5 0 0 0 1.98-4.77v-22.5a6.5 6.5 0 0 0-1.98-4.77z"/></defs><g><g transform="translate(-205 -4777)"><use fill="#fff" fill-opacity="0" stroke="#004f9e" stroke-miterlimit="50" xlink:href="#ui2qa"/></g></g></svg>