<svg xmlns="http://www.w3.org/2000/svg" xmlns:xlink="http://www.w3.org/1999/xlink" width="142" height="50" viewBox="0 0 142 50"><defs><path id="4v75a" d="M103.2 4745.41c-.48.46-1.2.68-1.99.68-.4 0-.7 0-1.03-.07v-3.78c.32 0 .72-.08.95-.08.64 0 1.27.15 1.75.45.47.3.79.76.79 1.44 0 .6-.16 1.06-.48 1.36zm.54-3.48c-.63-.38-1.5-.6-2.37-.6-.32 0-.87 0-1.19.07v-2.42h4.03v-.98H99v8.92c.4.08 1.03.08 1.9.08a5.2 5.2 0 0 0 3.31-.98c.47-.46.79-1.14.79-1.97a2.64 2.64 0 0 0-1.26-2.12z"/><path id="4v75b" d="M109.81 4744.6c0 .15 0 .23-.07.38-.15.55-.66 1.1-1.46 1.1-.6 0-1.1-.4-1.1-1.17 0-1.25 1.39-1.49 2.63-1.49zm1.04-1.88c0-1.32-.44-2.72-2.35-2.72-.8 0-1.54.23-2.06.62l.3.78a2.84 2.84 0 0 1 1.61-.47c1.25 0 1.4 1.01 1.4 1.56v.15c-2.43 0-3.75.86-3.75 2.5 0 .93.66 1.86 1.91 1.86.88 0 1.55-.47 1.91-1.01h.08l.07.85H111c-.07-.46-.07-1-.07-1.55v-2.57z"/><path id="4v75c" d="M117.65 4742.83h-3.38V4740H113v7h1.27v-3.17h3.38v3.17H119v-7h-1.35z"/><path id="4v75d" d="M123.74 4743.13l3.17-3.13h-1.62l-2.75 3.05h-.25V4740H121v7h1.29v-3.05h.25c1.2 0 1.89.5 2.4 1.65.26.58.52 1.15.69 1.4H127a9.7 9.7 0 0 1-.77-1.73c-.6-1.32-1.29-2.06-2.49-2.14z"/><path id="4v75e" d="M133.36 4740.95c.6 0 1.04.16 1.34.32l.3-.95c-.3-.16-.9-.32-1.57-.32-2.09 0-3.43 1.51-3.43 3.58 0 2.07 1.27 3.42 3.13 3.42.83 0 1.5-.24 1.8-.4l-.23-.95c-.3.16-.74.32-1.42.32-1.27 0-2.16-.96-2.16-2.55 0-1.35.82-2.47 2.24-2.47z"/><path id="4v75f" d="M138.35 4746.11c-.44 0-.7 0-1.05-.08v-2.33h.96c1.31 0 2.36.24 2.36 1.2 0 .97-1.4 1.21-2.27 1.21zm-1.05-5.22c.35 0 .62-.09 1.05-.09 1.31 0 2 .33 2 .97 0 .81-1.04 1.06-2 1.06h-1.05zm2.79 2.33c.87-.16 1.56-.73 1.56-1.53 0-1.53-2-1.69-3.3-1.69-.87 0-1.83.08-2.35.16v6.76c.43 0 1.22.08 2.09.08 1.48 0 3.91-.24 3.91-2.01-.09-1.05-.87-1.61-1.91-1.77z"/><path id="4v75g" d="M144.26 4742.82c.08-.86.64-1.95 1.9-1.95 1.35 0 1.74 1.17 1.67 1.95zm1.9-2.82c-1.98 0-3.16 1.57-3.16 3.62 0 2.04 1.26 3.38 3.32 3.38 1.02 0 1.81-.24 2.2-.4l-.23-.86c-.47.16-.95.32-1.82.32-1.18 0-2.29-.71-2.29-2.28h4.74c0-.16.08-.32.08-.56-.08-1.33-.63-3.22-2.84-3.22z"/><path id="4v75h" d="M155.34 4743.17l2.58-3.17h-1.4l-2.2 3.01h-.23V4740h-1.18v3.01h-.23l-2.2-3.01h-1.4l2.66 3.17c-1.02.09-1.57.74-2.04 1.88-.23.65-.47 1.38-.7 1.95h1.17c.24-.4.4-.98.63-1.55.4-1.14.94-1.46 1.88-1.46h.23v3.01h1.18v-3.01h.23c.86 0 1.49.32 1.88 1.46.16.57.4 1.14.63 1.55H158c-.23-.57-.47-1.3-.7-1.95-.4-1.14-.94-1.8-1.96-1.88z"/><path id="4v75i" d="M162.38 4743.58c-.49.82-.74 1.3-1.15 2.12h-.08c.08-.98.08-1.63.08-2.77V4740H160v6.92h1.48c.74-1.22 1.48-2.52 2.14-3.58.4-.74.74-1.22 1.15-2.12h.08c-.08 1.14-.08 1.71-.08 2.85v2.93H166v-6.92h-1.48z"/><path id="4v75j" d="M173 4740h-1.32l-.94 1.5c-.23.42-.47.75-.62 1.17h-.08c-.23-.42-.4-.75-.7-1.17l-.94-1.5h-1.32l2.26 3.42L167 4747h1.32l.94-1.58.7-1.25.7 1.25.94 1.58h1.4l-2.34-3.67z"/><path id="4v75k" d="M179.89 4746.28c-.82 0-1.48-.58-1.7-1.49 0-.16-.08-.33-.08-.5v-1.23c0-.17.08-.33.08-.5.22-.99.96-1.57 1.7-1.57 1.18 0 1.85 1.24 1.85 2.65.07 1.57-.6 2.64-1.85 2.64zm.44-6.28c-1.03 0-1.77.5-2.22 1.32l-.07-1.24H177c0 .66.07 1.4.07 2.32v7.6h1.12v-3.8a2.19 2.19 0 0 0 1.92 1.07c1.48 0 2.89-1.24 2.89-3.8 0-2.07-1.19-3.47-2.67-3.47z"/><path id="4v75l" d="M185.18 4742.82c.08-.86.64-1.95 1.9-1.95 1.35 0 1.75 1.17 1.67 1.95zm1.98-2.82c-1.98 0-3.16 1.57-3.16 3.62 0 2.04 1.26 3.38 3.32 3.38 1.02 0 1.81-.24 2.2-.4l-.23-.86c-.47.16-.95.32-1.82.32-1.18 0-2.29-.71-2.29-2.28h4.74c0-.16.08-.32.08-.56-.08-1.33-.71-3.22-2.84-3.22z"/><path id="4v75m" d="M198.86 4746h-2.29v-6h-1.14v6h-2.29v-6H192v7h8v-7h-1.14z"/><path id="4v75n" d="M203.18 4742.82c.08-.86.64-1.95 1.9-1.95 1.35 0 1.75 1.17 1.67 1.95zm1.98-2.82c-1.98 0-3.16 1.57-3.16 3.62 0 2.04 1.26 3.38 3.32 3.38 1.02 0 1.81-.24 2.2-.4l-.23-.86c-.47.16-.95.32-1.82.32-1.18 0-2.29-.71-2.29-2.28h4.74c0-.16.08-.32.08-.56-.08-1.33-.71-3.22-2.84-3.22z"/><path id="4v75o" d="M213.73 4742.83h-3.38V4740H209v7h1.35v-3.17h3.38v3.17H215v-7h-1.27z"/><path id="4v75p" d="M219.38 4743.58c-.49.82-.74 1.3-1.15 2.12h-.08c.08-.98.08-1.63.08-2.77V4740H217v6.92h1.48c.74-1.22 1.48-2.52 2.14-3.58.4-.74.74-1.22 1.15-2.12h.08c-.08 1.14-.08 1.71-.08 2.85v2.93H223v-6.92h-1.48z"/><path id="4v75q" d="M226.38 4743.58c-.49.82-.74 1.3-1.15 2.12h-.08c.08-.98.08-1.63.08-2.77V4740H224v6.92h1.48c.74-1.22 1.48-2.52 2.14-3.58.4-.74.74-1.22 1.15-2.12h.08c-.08 1.14-.08 1.71-.08 2.85v2.93H230v-6.92h-1.48z"/><path id="4v75r" d="M226.96 4740c1.15 0 2.04-.64 2.04-2h-.98c-.09.73-.35 1.18-1.06 1.18-.63 0-.98-.54-.98-1.18H225c.09 1.1.62 2 1.96 2z"/><path id="4v75s" d="M126 4713.37c-1.22-5.97-6.76-10.37-13.35-10.37-2.85 0-5.45.79-7.65 2.2 0 0 19.13 8.48 19.13 8.56 1.87.71 1.87-.39 1.87-.39z"/><path id="4v75t" d="M122 4724.23s-.4.32-.94.08c0 0-17.6-6.87-21.2-8.24a.6.6 0 0 0-.86.48c.4 6.95 6.1 12.45 12.99 12.45a13.46 13.46 0 0 0 10.01-4.77z"/><path id="4v75u" d="M97.82 4714.85c0-.33.16-.65.8-.4.64.24 22.59 9.38 22.67 9.38.71.25 1.27.25 1.6-.16a9.5 9.5 0 0 0 1.11-1.96c-.24.4-.96 1.39-1.92.98-.08 0-24.74-10.53-24.98-10.62-.88-.32-1.43.5-.88 1.23.08.08 2 2.61 2 2.61s-.4-.73-.4-1.06z"/><path id="4v75v" d="M91.8 4703.37c.07 0 31.21 13.4 31.37 13.48.64.31 1.75.16 1.83-.7v-.78c0-.47 0-.93-.08-1.4 0 .31-.24 1.71-1.83 1.01-.23-.15-32.17-14.65-32.65-14.89-.63-.3-1.9.16-1.27 1.48 0 0 2.55 4.06 2.55 3.98a6.9 6.9 0 0 1-.56-1.8c-.08-.3.24-.62.63-.38z"/><path id="4v75w" d="M95.62 4708.87c.24.08 27.63 11.85 27.8 11.93.96.41 1.77.17 2.1-.56.24-.65.4-1.22.48-1.87-.16.32-.73 1.54-2.02 1.05-.08 0-29.17-13.15-29.5-13.31-.8-.4-1.93.4-1.29 1.38.08.16 2.43 3.49 2.43 3.49s-.65-1.14-.57-1.62c-.08-.41.32-.57.57-.5z"/><path id="4v75x" d="M209.58 4710.98c.39.08.7.32.85.65.16.32.23 1.22.23 2.52v4.08h-3.32v-4.08c0-1.38.07-2.2.23-2.52.15-.33.38-.57.85-.65v-.98H203v.98c.46.08.77.32.93.73.15.24.15 1.14.15 2.53v9.6c0 1.4-.07 2.2-.15 2.45-.23.4-.54.65-.93.73v.98h5.42v-.98a1.2 1.2 0 0 1-.85-.65 8.14 8.14 0 0 1-.23-2.52v-4.32h3.32v4.32c0 1.3-.07 2.2-.23 2.52-.15.33-.38.57-.85.65v.98H215v-.98a1.13 1.13 0 0 1-.93-.73c-.15-.24-.23-1.14-.23-2.44v-9.61c0-1.39.08-2.2.23-2.53.23-.4.54-.65.93-.73v-.98h-5.42z"/><path id="4v75y" d="M137.8 4727.06c-.72 0-1.29-.15-1.61-.54-.32-.4-.56-.86-.64-1.49 0-.31-.08-1.01-.08-2.26v-16.02l5.88 21.25h.8l5.73-20.94v16.4c0 1.26 0 2.04-.17 2.35-.08.47-.24.7-.48.86-.32.24-.64.4-1.13.4h-.48v.93H154v-.94h-.56c-.49 0-.81-.08-1.05-.39a2.02 2.02 0 0 1-.57-.86c-.08-.31-.16-1.1-.16-2.42v-15.86c0-1.25.08-2.03.16-2.34.08-.4.25-.7.49-.86.24-.24.64-.4 1.13-.4h.56v-.93h-6.53l-4.35 16.48-4.51-16.48H132v.94h.48c.49 0 .8.15 1.05.39.24.23.48.54.57.86.08.31.16 1.1.16 2.34v17.19a4.4 4.4 0 0 1-.4 1.33c-.17.3-.4.54-.73.78-.32.15-.65.31-.97.23H132v.94h5.88v-.94z"/><path id="4v75z" d="M229.94 4726.36c-.16-.31-.8-1.4-1.87-3.83l-2.6-5.94s2.44-3.75 3.34-4.37c.32-.31.8-.47 1.22-.55v-.94h-5.04v.94c1.7 0 1.54 1.4 1.14 2.11l-3.58 5.4V4703H218v.94c.49.08.81.31.97.62.17.31.25 1.1.25 2.42v16.96c0 1.33-.08 2.1-.24 2.34-.17.4-.57.63-.98.7v.94h5.77v-.94c-.49-.07-.81-.3-.98-.62-.16-.31-.24-.55-.24-2.42v-2.81l.73-1.1 2.2 4.77c.32.78.48 1.25.48 1.56 0 .16-.08.31-.16.47-.08.15-.33.23-.57.23v.94H231v-.94a1.43 1.43 0 0 1-1.06-.7z"/><path id="4v75A" d="M161.06 4725.8c-.08.47-.24.7-.47.86-.32.24-.64.4-1.11.4h-.55v.94h8.3v-.94h-.55c-.48 0-.8-.08-1.1-.4-.25-.23-.4-.55-.56-.86a12.4 12.4 0 0 1-.16-2.44V4704.42h1.1c1.03 0 1.83.39 2.3 1.1.71 1.02.55 2.43.8 4.24h.94V4703h-14v6.76h.95c.16-1.89.08-3.3.79-4.24.47-.71 1.27-1.1 2.3-1.1h1.1v19.1a8 8 0 0 1-.08 2.28z"/><path id="4v75B" d="M179.36 4726.12c-.24-.31-.33-.86-.33-1.49v-12.77c1.21 0 2.1.15 2.74.54.56.4 1.13 1.02 1.45 1.96.88 2.28.88 7.45.08 9.72a4.3 4.3 0 0 1-1.2 1.88c-.57.47-1.13.63-1.78.63-.4 0-.72-.16-.96-.47zm7.08-.4c1.93-2.42 2.17-10.26.16-12.77-1.77-2.27-4.83-2.5-7.57-2.5v-6.04h3.14c1.05 0 1.85.4 2.34 1.1.72 1.02.56 2.43.8 4.23h.97V4703H173v.94c.72 0 1.2.08 1.53.31.24.24.48.47.56.87.08.3.16.94.16 2.27v15.99c0 1.33-.08 2.2-.16 2.5-.08.4-.32.63-.56.87-.24.23-.8.31-1.53.31v.94h8.2c2.34 0 4.03-.78 5.24-2.27z"/><path id="4v75C" d="M195.82 4723.85c-1.21 1.88-3.96.7-2.58-2.19a14.62 14.62 0 0 1 2.58-3.52zm3.56 1.33c-.08-.08-.16-.23-.16-.47 0-.23-.08-.7-.08-1.48v-6.34c0-1.88-.08-3.06-.16-3.6-.33-1.57-1.3-3.29-3.72-3.29-.9 0-1.7.23-2.51.63a4.25 4.25 0 0 0-1.86 1.87 5.2 5.2 0 0 0-.73 2.67c-.08 1.48.9 2.03 1.86 2.03.97 0 1.7-.7 1.7-1.64 0-.32-.08-.55-.24-.86-.24-.47-1.54-1.33-.33-2.74.33-.32.81-.55 1.3-.55.89 0 1.21.62 1.37 1.25.08.31.17 1.17.17 2.43v1.72c-2.43 1.72-4.05 3.13-4.78 4.22a5.32 5.32 0 0 0-1.21 3.3c0 1.95 1.13 3.6 2.83 3.6 1.7 0 2.67-1.1 3.16-2.75.08.94.32 1.65.64 2.12.4.47.9.7 1.46.7.56 0 1.21-.16 1.7-.55.4-.39.8-1.02 1.21-1.95l-.65-.63c-.4.55-.89.47-.97.31z"/></defs><g><g transform="translate(-89 -4700)"><g><use fill="#004f9e" xlink:href="#4v75a"/></g><g><use fill="#004f9e" xlink:href="#4v75b"/></g><g><use fill="#004f9e" xlink:href="#4v75c"/></g><g><use fill="#004f9e" xlink:href="#4v75d"/></g><g><use fill="#004f9e" xlink:href="#4v75e"/></g><g><use fill="#004f9e" xlink:href="#4v75f"/></g><g><use fill="#004f9e" xlink:href="#4v75g"/></g><g><use fill="#004f9e" xlink:href="#4v75h"/></g><g><use fill="#004f9e" xlink:href="#4v75i"/></g><g><use fill="#004f9e" xlink:href="#4v75j"/></g><g><use fill="#004f9e" xlink:href="#4v75k"/></g><g><use fill="#004f9e" xlink:href="#4v75l"/></g><g><use fill="#004f9e" xlink:href="#4v75m"/></g><g><use fill="#004f9e" xlink:href="#4v75n"/></g><g><use fill="#004f9e" xlink:href="#4v75o"/></g><g><use fill="#004f9e" xlink:href="#4v75p"/></g><g><use fill="#004f9e" xlink:href="#4v75q"/></g><g><use fill="#004f9e" xlink:href="#4v75r"/></g><g><use fill="#004f9e" xlink:href="#4v75s"/></g><g><use fill="#004f9e" xlink:href="#4v75t"/></g><g><use fill="#e32213" xlink:href="#4v75u"/></g><g><use fill="#e32213" xlink:href="#4v75v"/></g><g><use fill="#e32213" xlink:href="#4v75w"/></g><g><use fill="#004f9e" xlink:href="#4v75x"/></g><g><use fill="#004f9e" xlink:href="#4v75y"/></g><g><use fill="#004f9e" xlink:href="#4v75z"/></g><g><use fill="#004f9e" xlink:href="#4v75A"/></g><g><use fill="#004f9e" xlink:href="#4v75B"/></g><g><use fill="#004f9e" xlink:href="#4v75C"/></g></g></g></svg>