<?xml version="1.0" encoding="UTF-8"?>
<svg width="142px" height="50px" viewBox="0 0 142 50" version="1.1" xmlns="http://www.w3.org/2000/svg" xmlns:xlink="http://www.w3.org/1999/xlink">
    <!-- Generator: Sketch 50.2 (55047) - http://www.bohemiancoding.com/sketch -->
    <title>MTBank-logo-01</title>
    <desc>Created with Sketch.</desc>
    <defs></defs>
    <g id="Symbols" stroke="none" stroke-width="1" fill="none" fill-rule="evenodd">
        <g id="Nav-Tablet-Landscape" fill-rule="nonzero">
            <g id="MTBank-logo-01">
                <path d="M14.7368421,41.9327731 C14.1052632,41.5546218 13.2368421,41.3277311 12.3684211,41.3277311 C12.0526316,41.3277311 11.5,41.3277311 11.1842105,41.4033613 L11.1842105,38.9831933 L15.2105263,38.9831933 L15.2105263,38 L10,38 L10,46.9243697 C10.3947368,47 11.0263158,47 11.8947368,47 C13.1578947,47 14.4210526,46.697479 15.2105263,46.0168067 C15.6842105,45.5630252 16,44.8823529 16,44.0504202 C15.9210526,43.0672269 15.4473684,42.3865546 14.7368421,41.9327731 Z M14.1842105,45.4117647 C13.7105263,45.8655462 13,46.092437 12.2105263,46.092437 C11.8157895,46.092437 11.5,46.092437 11.1842105,46.0168067 L11.1842105,42.2352941 C11.5,42.2352941 11.8947368,42.1596639 12.1315789,42.1596639 C12.7631579,42.1596639 13.3947368,42.3109244 13.8684211,42.6134454 C14.3421053,42.9159664 14.6578947,43.3697479 14.6578947,44.0504202 C14.6578947,44.6554622 14.5,45.1092437 14.1842105,45.4117647 Z" id="Shape" fill="#004F9E"></path>
                <path d="M21.8529412,42.7222222 C21.8529412,41.4 21.4117647,40 19.5,40 C18.6911765,40 17.9558824,40.2333333 17.4411765,40.6222222 L17.7352941,41.4 C18.1764706,41.0888889 18.7647059,40.9333333 19.3529412,40.9333333 C20.6029412,40.9333333 20.75,41.9444444 20.75,42.4888889 L20.75,42.6444444 C18.3235294,42.6444444 17,43.5 17,45.1333333 C17,46.0666667 17.6617647,47 18.9117647,47 C19.7941176,47 20.4558824,46.5333333 20.8235294,45.9888889 L20.8970588,45.9888889 L20.9705882,46.8444444 L22,46.8444444 C21.9264706,46.3777778 21.9264706,45.8333333 21.9264706,45.2888889 L21.9264706,42.7222222 L21.8529412,42.7222222 Z M20.8235294,44.5888889 C20.8235294,44.7444444 20.8235294,44.8222222 20.75,44.9777778 C20.6029412,45.5222222 20.0882353,46.0666667 19.2794118,46.0666667 C18.6911765,46.0666667 18.1764706,45.6777778 18.1764706,44.9 C18.1764706,43.6555556 19.5735294,43.4222222 20.8235294,43.4222222 L20.8235294,44.5888889 Z" id="Shape" fill="#004F9E"></path>
                <polygon id="Shape" fill="#004F9E" points="28.6478873 42.8333333 25.2676056 42.8333333 25.2676056 40 24 40 24 47 25.2676056 47 25.2676056 43.8333333 28.6478873 43.8333333 28.6478873 47 30 47 30 40 28.6478873 40"></polygon>
                <path d="M34.7428571,43.1294118 L37.9142857,40 L36.2857143,40 L33.5428571,43.0470588 L33.2857143,43.0470588 L33.2857143,40 L32,40 L32,47 L33.2857143,47 L33.2857143,43.9529412 L33.5428571,43.9529412 C34.7428571,43.9529412 35.4285714,44.4470588 35.9428571,45.6 C36.2,46.1764706 36.4571429,46.7529412 36.6285714,47 L38,47 C37.6571429,46.4235294 37.4,45.7647059 37.2285714,45.2705882 C36.6285714,43.9529412 35.9428571,43.2117647 34.7428571,43.1294118 Z" id="Shape" fill="#004F9E"></path>
                <path d="M44.358209,40.9545455 C44.9552239,40.9545455 45.4029851,41.1136364 45.7014925,41.2727273 L46,40.3181818 C45.7014925,40.1590909 45.1044776,40 44.4328358,40 C42.3432836,40 41,41.5113636 41,43.5795455 C41,45.6477273 42.2686567,47 44.1343284,47 C44.9552239,47 45.6268657,46.7613636 45.9253731,46.6022727 L45.7014925,45.6477273 C45.4029851,45.8068182 44.9552239,45.9659091 44.2835821,45.9659091 C43.0149254,45.9659091 42.119403,45.0113636 42.119403,43.4204545 C42.119403,42.0681818 42.9402985,40.9545455 44.358209,40.9545455 Z" id="Shape" fill="#004F9E"></path>
                <path d="M51.0869565,43.2183908 C51.9565217,43.0574713 52.6521739,42.4942529 52.6521739,41.6896552 C52.6521739,40.1609195 50.6521739,40 49.3478261,40 C48.4782609,40 47.5217391,40.0804598 47,40.1609195 L47,46.9195402 C47.4347826,46.9195402 48.2173913,47 49.0869565,47 C50.5652174,47 53,46.7586207 53,44.9885057 C52.9130435,43.9425287 52.1304348,43.3793103 51.0869565,43.2183908 Z M48.3043478,40.8850575 C48.6521739,40.8850575 48.9130435,40.8045977 49.3478261,40.8045977 C50.6521739,40.8045977 51.3478261,41.1264368 51.3478261,41.7701149 C51.3478261,42.5747126 50.3043478,42.816092 49.3478261,42.816092 L48.3043478,42.816092 L48.3043478,40.8850575 Z M49.3478261,46.1149425 C48.9130435,46.1149425 48.6521739,46.1149425 48.3043478,46.0344828 L48.3043478,43.7011494 L49.2608696,43.7011494 C50.5652174,43.7011494 51.6086957,43.9425287 51.6086957,44.908046 C51.6086957,45.8735632 50.2173913,46.1149425 49.3478261,46.1149425 Z" id="Shape" fill="#004F9E"></path>
                <path d="M57.1578947,40 C55.1842105,40 54,41.5730337 54,43.6179775 C54,45.6629213 55.2631579,47 57.3157895,47 C58.3421053,47 59.1315789,46.7640449 59.5263158,46.6067416 L59.2894737,45.741573 C58.8157895,45.8988764 58.3421053,46.0561798 57.4736842,46.0561798 C56.2894737,46.0561798 55.1842105,45.3483146 55.1842105,43.7752809 L59.9210526,43.7752809 C59.9210526,43.6179775 60,43.4606742 60,43.2247191 C59.9210526,41.8876404 59.3684211,40 57.1578947,40 Z M55.2631579,42.8314607 C55.3421053,41.9662921 55.8947368,40.8651685 57.1578947,40.8651685 C58.5,40.8651685 58.8947368,42.0449438 58.8157895,42.8314607 L55.2631579,42.8314607 Z" id="Shape" fill="#004F9E"></path>
                <path d="M66.3391304,43.1744186 L68.9217391,40 L67.5130435,40 L65.3217391,43.0116279 L65.0869565,43.0116279 L65.0869565,40 L63.9130435,40 L63.9130435,43.0116279 L63.6782609,43.0116279 L61.4869565,40 L60.0782609,40 L62.7391304,43.1744186 C61.7217391,43.255814 61.173913,43.9069767 60.7043478,45.0465116 C60.4695652,45.6976744 60.2347826,46.4302326 60,47 L61.173913,47 C61.4086957,46.5930233 61.5652174,46.0232558 61.8,45.4534884 C62.1913043,44.3139535 62.7391304,43.9883721 63.6782609,43.9883721 L63.9130435,43.9883721 L63.9130435,47 L65.0869565,47 L65.0869565,43.9883721 L65.3217391,43.9883721 C66.1826087,43.9883721 66.8086957,44.3139535 67.2,45.4534884 C67.3565217,46.0232558 67.5913043,46.5930233 67.826087,47 L69,47 C68.7652174,46.4302326 68.5304348,45.6976744 68.2956522,45.0465116 C67.9043478,43.9069767 67.3565217,43.255814 66.3391304,43.1744186 Z" id="Shape" fill="#004F9E"></path>
                <path d="M73.3835616,43.5813953 C72.890411,44.3953488 72.6438356,44.8837209 72.2328767,45.6976744 L72.1506849,45.6976744 C72.2328767,44.7209302 72.2328767,44.0697674 72.2328767,42.9302326 L72.2328767,40 L71,40 L71,46.9186047 L72.4794521,46.9186047 C73.2191781,45.6976744 73.9589041,44.3953488 74.6164384,43.3372093 C75.0273973,42.6046512 75.3561644,42.1162791 75.7671233,41.2209302 L75.8493151,41.2209302 C75.7671233,42.3604651 75.7671233,42.9302326 75.7671233,44.0697674 L75.7671233,47 L77,47 L77,40.0813953 L75.5205479,40.0813953 L73.3835616,43.5813953 Z" id="Shape" fill="#004F9E"></path>
                <path d="M84,40 L82.6753247,40 L81.7402597,41.5 C81.5064935,41.9166667 81.2727273,42.25 81.1168831,42.6666667 L81.038961,42.6666667 C80.8051948,42.25 80.6493506,41.9166667 80.3376623,41.5 L79.4025974,40 L78.0779221,40 L80.3376623,43.4166667 L78,47 L79.3246753,47 L80.2597403,45.4166667 C80.4935065,45 80.7272727,44.5833333 80.961039,44.1666667 C81.1948052,44.5833333 81.4285714,45 81.6623377,45.4166667 L82.5974026,47 L84,47 L81.6623377,43.3333333 L84,40 Z" id="Shape" fill="#004F9E"></path>
                <path d="M91.3333333,40 C90.2962963,40 89.5555556,40.4958678 89.1111111,41.322314 L89.037037,40.0826446 L88,40.0826446 C88,40.7438017 88.0740741,41.4876033 88.0740741,42.3966942 L88.0740741,50 L89.1851852,50 L89.1851852,46.1983471 C89.5555556,46.8595041 90.2962963,47.2727273 91.1111111,47.2727273 C92.5925926,47.2727273 94,46.0330579 94,43.4710744 C94,41.4049587 92.8148148,40 91.3333333,40 Z M90.8888889,46.2809917 C90.0740741,46.2809917 89.4074074,45.7024793 89.1851852,44.7933884 C89.1851852,44.6280992 89.1111111,44.4628099 89.1111111,44.2975207 L89.1111111,43.0578512 C89.1111111,42.892562 89.1851852,42.7272727 89.1851852,42.5619835 C89.4074074,41.5702479 90.1481481,40.9917355 90.8888889,40.9917355 C92.0740741,40.9917355 92.7407407,42.231405 92.7407407,43.6363636 C92.8148148,45.2066116 92.1481481,46.2809917 90.8888889,46.2809917 Z" id="Shape" fill="#004F9E"></path>
                <path d="M98.1578947,40 C96.1842105,40 95,41.5730337 95,43.6179775 C95,45.6629213 96.2631579,47 98.3157895,47 C99.3421053,47 100.131579,46.7640449 100.526316,46.6067416 L100.289474,45.741573 C99.8157895,45.8988764 99.3421053,46.0561798 98.4736842,46.0561798 C97.2894737,46.0561798 96.1842105,45.3483146 96.1842105,43.7752809 L100.921053,43.7752809 C100.921053,43.6179775 101,43.4606742 101,43.2247191 C100.921053,41.8876404 100.289474,40 98.1578947,40 Z M96.1842105,42.8314607 C96.2631579,41.9662921 96.8157895,40.8651685 98.0789474,40.8651685 C99.4210526,40.8651685 99.8157895,42.0449438 99.7368421,42.8314607 L96.1842105,42.8314607 Z" id="Shape" fill="#004F9E"></path>
                <polygon id="Shape" fill="#004F9E" points="109.857143 46 107.571429 46 107.571429 40 106.428571 40 106.428571 46 104.142857 46 104.142857 40 103 40 103 47 111 47 111 40 109.857143 40"></polygon>
                <path d="M116.157895,40 C114.184211,40 113,41.5730337 113,43.6179775 C113,45.6629213 114.263158,47 116.315789,47 C117.342105,47 118.131579,46.7640449 118.526316,46.6067416 L118.289474,45.741573 C117.815789,45.8988764 117.342105,46.0561798 116.473684,46.0561798 C115.289474,46.0561798 114.184211,45.3483146 114.184211,43.7752809 L118.921053,43.7752809 C118.921053,43.6179775 119,43.4606742 119,43.2247191 C118.921053,41.8876404 118.289474,40 116.157895,40 Z M114.184211,42.8314607 C114.263158,41.9662921 114.815789,40.8651685 116.078947,40.8651685 C117.421053,40.8651685 117.815789,42.0449438 117.736842,42.8314607 L114.184211,42.8314607 Z" id="Shape" fill="#004F9E"></path>
                <polygon id="Shape" fill="#004F9E" points="124.732394 42.8333333 121.352113 42.8333333 121.352113 40 120 40 120 47 121.352113 47 121.352113 43.8333333 124.732394 43.8333333 124.732394 47 126 47 126 40 124.732394 40"></polygon>
                <path d="M130.383562,43.5813953 C129.890411,44.3953488 129.643836,44.8837209 129.232877,45.6976744 L129.150685,45.6976744 C129.232877,44.7209302 129.232877,44.0697674 129.232877,42.9302326 L129.232877,40 L128,40 L128,46.9186047 L129.479452,46.9186047 C130.219178,45.6976744 130.958904,44.3953488 131.616438,43.3372093 C132.027397,42.6046512 132.356164,42.1162791 132.767123,41.2209302 L132.849315,41.2209302 C132.767123,42.3604651 132.767123,42.9302326 132.767123,44.0697674 L132.767123,47 L134,47 L134,40.0813953 L132.520548,40.0813953 L130.383562,43.5813953 Z" id="Shape" fill="#004F9E"></path>
                <path d="M137.383562,43.5813953 C136.890411,44.3953488 136.643836,44.8837209 136.232877,45.6976744 L136.150685,45.6976744 C136.232877,44.7209302 136.232877,44.0697674 136.232877,42.9302326 L136.232877,40 L135,40 L135,46.9186047 L136.479452,46.9186047 C137.219178,45.6976744 137.958904,44.3953488 138.616438,43.3372093 C139.027397,42.6046512 139.356164,42.1162791 139.767123,41.2209302 L139.849315,41.2209302 C139.767123,42.3604651 139.767123,42.9302326 139.767123,44.0697674 L139.767123,47 L141,47 L141,40.0813953 L139.520548,40.0813953 L137.383562,43.5813953 Z" id="Shape" fill="#004F9E"></path>
                <path d="M137.955556,40 C139.111111,40 140,39.3636364 140,38 L139.022222,38 C138.933333,38.7272727 138.666667,39.1818182 137.955556,39.1818182 C137.333333,39.1818182 136.977778,38.6363636 136.977778,38 L136,38 C136.088889,39.0909091 136.622222,40 137.955556,40 Z" id="Shape" fill="#004F9E"></path>
                <path d="M37,13.37013 C35.7790698,7.39944909 30.244186,3 23.6511628,3 C20.8023256,3 18.1976744,3.78561591 16,5.19972455 C16,5.19972455 35.127907,13.6843764 35.127907,13.762938 C37,14.4699923 37,13.37013 37,13.37013 Z" id="Shape" fill="#004F9E"></path>
                <path d="M33,24.2306223 C33,24.2306223 32.6088435,24.55397 32.0612245,24.3114592 C32.0612245,24.3114592 14.4591837,17.4403219 10.8605442,16.0660945 C10.3129252,15.8235837 10,16.3086052 10,16.5511159 C10.3911565,23.5030902 16.1020408,29 22.9863946,29 C27.0544218,28.9191631 30.5748299,27.0599142 33,24.2306223 Z" id="Shape" fill="#004F9E"></path>
                <path d="M8.82035753,14.8504254 C8.82035753,14.5237931 8.97998949,14.1971607 9.61851736,14.442135 C10.2570452,14.6871093 32.2064406,23.8328153 32.2862566,23.8328153 C33.0046004,24.0777895 33.5633123,24.0777895 33.8825762,23.6694991 C34.3614721,23.0162344 34.6807361,22.4446277 35,21.7097049 C34.7605521,22.1179954 34.0422082,23.0978925 33.0844164,22.689602 C33.0046004,22.689602 8.34146163,12.1557085 8.10201368,12.0740504 C7.22403787,11.747418 6.66532598,12.5639989 7.22403787,13.2989217 C7.30385385,13.3805798 9.21943744,15.9119806 9.21943744,15.9119806 C9.21943744,15.9119806 8.82035753,15.1770578 8.82035753,14.8504254 Z" id="Shape" fill="#E32213"></path>
                <path d="M2.79467604,3.36675712 C2.87411461,3.36675712 34.0140356,16.7738846 34.1729128,16.851833 C34.8084214,17.1636266 35.9205614,17.0077298 36,16.1502972 C36,15.916452 36,15.6046583 36,15.3708131 C36,14.9031226 36,14.4354321 35.9205614,13.9677416 C35.9205614,14.2795353 35.6822457,15.6826067 34.0934742,14.981071 C33.8551585,14.8251742 1.92085172,0.326768928 1.44422028,0.092923682 C0.808711684,-0.218869979 -0.462305501,0.248820513 0.173203092,1.57394357 C0.173203092,1.57394357 2.71523746,5.62726117 2.71523746,5.54931275 C2.63579889,5.47136434 2.31804459,4.61393177 2.15916744,3.7564992 C2.07972887,3.44470554 2.39748317,3.13291188 2.79467604,3.36675712 Z" id="Shape" fill="#E32213"></path>
                <path d="M6.61583283,8.86784844 C6.8582597,8.94904957 34.2524955,20.7232122 34.4141134,20.8044134 C35.3838209,21.210419 36.1919104,20.9668156 36.5151463,20.2360055 C36.7575731,19.5863965 36.919191,19.0179887 37,18.3683797 C36.8383821,18.6931842 36.2727194,19.911201 34.9797761,19.4239943 C34.8989672,19.4239943 5.80774328,6.26941254 5.48450746,6.1070103 C4.6764179,5.70100469 3.54509253,6.51301591 4.19156417,7.48742937 C4.27237313,7.64983162 6.61583283,10.9790776 6.61583283,10.9790776 C6.61583283,10.9790776 5.96936119,9.84226191 6.05017014,9.35505518 C5.96936119,8.94904957 6.37340596,8.78664732 6.61583283,8.86784844 Z" id="Shape" fill="#E32213"></path>
                <path d="M120.580645,10.9773756 C120.967742,11.0588235 121.277419,11.3031674 121.432258,11.6289593 C121.587097,11.9547511 121.664516,12.8506787 121.664516,14.1538462 L121.664516,18.2262443 L118.335484,18.2262443 L118.335484,14.1538462 C118.335484,12.7692308 118.412903,11.9547511 118.567742,11.6289593 C118.722581,11.3031674 118.954839,11.0588235 119.419355,10.9773756 L119.419355,10 L114,10 L114,10.9773756 C114.464516,11.0588235 114.774194,11.3031674 114.929032,11.7104072 C115.083871,11.9547511 115.083871,12.8506787 115.083871,14.2352941 L115.083871,23.8461538 C115.083871,25.2307692 115.006452,26.0452489 114.929032,26.2895928 C114.696774,26.6968326 114.387097,26.9411765 114,27.0226244 L114,28 L119.419355,28 L119.419355,27.0226244 C119.032258,26.9411765 118.722581,26.6968326 118.567742,26.3710407 C118.412903,26.0452489 118.335484,25.1493213 118.335484,23.8461538 L118.335484,19.5294118 L121.664516,19.5294118 L121.664516,23.8461538 C121.664516,25.1493213 121.587097,26.0452489 121.432258,26.3710407 C121.277419,26.6968326 121.045161,26.9411765 120.580645,27.0226244 L120.580645,28 L126,28 L126,27.0226244 C125.535484,26.9411765 125.225806,26.6968326 125.070968,26.2895928 C124.916129,26.0452489 124.83871,25.1493213 124.83871,23.8461538 L124.83871,14.2352941 C124.83871,12.8506787 124.916129,12.0361991 125.070968,11.7104072 C125.303226,11.3031674 125.612903,11.0588235 126,10.9773756 L126,10 L120.580645,10 L120.580645,10.9773756 Z" id="Shape" fill="#004F9E"></path>
                <path d="M48.8021978,27.0625 C48.0769231,27.0625 47.5128205,26.90625 47.1904762,26.515625 C46.8681319,26.125 46.6263736,25.65625 46.5457875,25.03125 C46.5457875,24.71875 46.4652015,24.015625 46.4652015,22.765625 L46.4652015,6.75 L52.3479853,28 L53.1538462,28 L58.8754579,7.0625 L58.8754579,23.46875 C58.8754579,24.71875 58.8754579,25.5 58.7142857,25.8125 C58.6336996,26.28125 58.4725275,26.515625 58.2307692,26.671875 C57.9084249,26.90625 57.5860806,27.0625 57.1025641,27.0625 L56.6190476,27.0625 L56.6190476,28 L65,28 L65,27.0625 L64.4358974,27.0625 C63.952381,27.0625 63.6300366,26.984375 63.3882784,26.671875 C63.1465201,26.4375 62.9047619,26.125 62.8241758,25.8125 C62.7435897,25.5 62.6630037,24.71875 62.6630037,23.390625 L62.6630037,7.53125 C62.6630037,6.28125 62.7435897,5.5 62.8241758,5.1875 C62.9047619,4.796875 63.0659341,4.484375 63.3076923,4.328125 C63.5494505,4.09375 63.952381,3.9375 64.4358974,3.9375 L65,3.9375 L65,3 L58.4725275,3 L54.1208791,19.484375 L49.6080586,3 L43,3 L43,3.9375 L43.4835165,3.9375 C43.967033,3.9375 44.2893773,4.09375 44.5311355,4.328125 C44.7728938,4.5625 45.014652,4.875 45.0952381,5.1875 C45.1758242,5.5 45.2564103,6.28125 45.2564103,7.53125 L45.2564103,22.84375 C45.2564103,23.9375 45.2564103,24.5625 45.2564103,24.71875 C45.1758242,25.265625 45.014652,25.734375 44.8534799,26.046875 C44.6923077,26.359375 44.4505495,26.59375 44.1282051,26.828125 C43.8058608,26.984375 43.4835165,27.140625 43.1611722,27.0625 L43,27.0625 L43,28 L48.8827839,28 L48.8827839,27.0625 L48.8021978,27.0625 Z" id="Shape" fill="#004F9E"></path>
                <path d="M140.94375,26.359375 C140.78125,26.046875 140.13125,24.953125 139.075,22.53125 L136.475,16.59375 C136.475,16.59375 138.9125,12.84375 139.80625,12.21875 C140.13125,11.90625 140.61875,11.75 141.025,11.671875 L141.025,10.734375 L135.9875,10.734375 L135.9875,11.671875 C137.69375,11.671875 137.53125,13.078125 137.125,13.78125 C136.9625,14.015625 133.55,19.171875 133.55,19.171875 L133.55,3 L129,3 L129,3.9375 C129.4875,4.015625 129.8125,4.25 129.975,4.5625 C130.1375,4.875 130.21875,5.65625 130.21875,6.984375 L130.21875,23.9375 C130.21875,25.265625 130.1375,26.046875 129.975,26.28125 C129.8125,26.671875 129.40625,26.90625 129,26.984375 L129,27.921875 L134.76875,27.921875 L134.76875,26.984375 C134.28125,26.90625 133.95625,26.671875 133.79375,26.359375 C133.63125,26.046875 133.55,25.8125 133.55,23.9375 L133.55,21.125 L134.28125,20.03125 L136.475,24.796875 C136.8,25.578125 136.9625,26.046875 136.9625,26.359375 C136.9625,26.515625 136.88125,26.671875 136.8,26.828125 C136.71875,26.984375 136.475,27.0625 136.23125,27.0625 L136.23125,28 L142,28 L142,27.0625 C141.5125,26.984375 141.1875,26.75 140.94375,26.359375 Z" id="Shape" fill="#004F9E"></path>
                <path d="M72.0621469,25.7987421 C71.9830508,26.2704403 71.8248588,26.5062893 71.5875706,26.663522 C71.2711864,26.8993711 70.9548023,27.0566038 70.480226,27.0566038 L69.9265537,27.0566038 L69.9265537,28 L78.2316384,28 L78.2316384,27.0566038 L77.6779661,27.0566038 C77.2033898,27.0566038 76.8870056,26.9779874 76.5706215,26.663522 C76.3333333,26.427673 76.1751412,26.1132075 76.0169492,25.7987421 C75.9378531,25.4842767 75.8587571,24.6981132 75.8587571,23.3616352 L75.8587571,14.3207547 L75.8587571,4.41509434 L76.9661017,4.41509434 C77.9943503,4.41509434 78.7853107,4.8081761 79.259887,5.51572327 C79.9717514,6.53773585 79.8135593,7.95283019 80.0508475,9.76100629 L81,9.76100629 L81,3 L67,3 L67,9.76100629 L67.9491525,9.76100629 C68.1073446,7.87421384 68.0282486,6.4591195 68.740113,5.51572327 C69.2146893,4.8081761 70.0056497,4.41509434 71.0338983,4.41509434 L72.1412429,4.41509434 L72.1412429,23.5188679 C72.220339,24.7767296 72.1412429,25.5628931 72.0621469,25.7987421 Z" id="Shape" fill="#004F9E"></path>
                <path d="M97.4372036,25.7272727 C99.3682988,23.2978056 99.6096857,15.460815 97.5981282,12.9529781 C95.8279577,10.6802508 92.7703904,10.4451411 90.0346723,10.4451411 L90.0346723,4.41065831 L93.1727019,4.41065831 C94.2187118,4.41065831 95.0233347,4.80250784 95.5061085,5.50783699 C96.2302692,6.52664577 96.0693446,7.93730408 96.3107315,9.73981191 L97.2762791,9.73981191 L97.2762791,3 L84,3 L84,3.94043887 C84.7241607,3.94043887 85.2069345,4.01880878 85.5287836,4.2539185 C85.7701705,4.48902821 86.0115574,4.72413793 86.0920197,5.11598746 C86.172482,5.42946708 86.2529443,6.05642633 86.2529443,7.38871473 L86.2529443,23.3761755 C86.2529443,24.7084639 86.172482,25.5705329 86.0920197,25.8840125 C86.0115574,26.2758621 85.7701705,26.5109718 85.5287836,26.7460815 C85.2873968,26.9811912 84.7241607,27.0595611 84,27.0595611 L84,28 L92.2071543,28 C94.5405609,28 96.2302692,27.2163009 97.4372036,25.7272727 Z M90.3565215,26.1191223 C90.1151346,25.8056426 90.0346723,25.2570533 90.0346723,24.630094 L90.0346723,23.6896552 L90.0346723,11.8557994 C91.2416068,11.8557994 92.126692,12.0125392 92.7703904,12.4043887 C93.3336265,12.7962382 93.8968626,13.4231975 94.2187118,14.3636364 C95.103797,16.6363636 95.103797,21.8087774 94.2991741,24.0815047 C93.9773249,24.9435737 93.5750134,25.5705329 93.0922396,25.9623824 C92.5290035,26.4326019 91.9657674,26.5893417 91.3220691,26.5893417 C90.9197576,26.5893417 90.5979084,26.4326019 90.3565215,26.1191223 Z" id="Shape" fill="#004F9E"></path>
                <path d="M110.382353,25.1826087 C110.301471,25.1043478 110.220588,24.9478261 110.220588,24.7130435 C110.220588,24.4782609 110.139706,24.0086957 110.139706,23.226087 L110.139706,16.8869565 C110.139706,15.0086957 110.058824,13.8347826 109.977941,13.2869565 C109.654412,11.7217391 108.683824,10 106.257353,10 C105.367647,10 104.558824,10.2347826 103.75,10.626087 C102.941176,11.0956522 102.294118,11.6434783 101.889706,12.5043478 C101.404412,13.2869565 101.242647,13.9913043 101.161765,15.1652174 C101.080882,16.6521739 102.051471,17.2 103.022059,17.2 C103.992647,17.2 104.720588,16.4956522 104.720588,15.5565217 C104.720588,15.2434783 104.639706,15.0086957 104.477941,14.6956522 C104.235294,14.226087 102.941176,13.3652174 104.154412,11.9565217 C104.477941,11.6434783 104.963235,11.4086957 105.448529,11.4086957 C106.338235,11.4086957 106.661765,12.0347826 106.823529,12.6608696 C106.904412,12.973913 106.985294,13.8347826 106.985294,15.0869565 L106.985294,16.8086957 C104.558824,18.5304348 102.941176,19.9391304 102.213235,21.0347826 C101.485294,22.0521739 101,22.9913043 101,24.3217391 C101,26.2782609 102.132353,27.9217391 103.830882,27.9217391 C105.529412,27.9217391 106.5,26.826087 106.985294,25.1826087 C107.066176,26.1217391 107.308824,26.826087 107.632353,27.2956522 C108.036765,27.7652174 108.522059,28 109.088235,28 C109.654412,28 110.301471,27.8434783 110.786765,27.4521739 C111.191176,27.0608696 111.595588,26.4347826 112,25.4956522 L111.352941,24.8695652 C110.948529,25.4173913 110.463235,25.3391304 110.382353,25.1826087 Z M106.823529,23.8521739 C105.610294,25.7304348 102.860294,24.5565217 104.235294,21.6608696 C104.720588,20.6434783 105.852941,19.0782609 106.823529,18.1391304 L106.823529,23.8521739 Z" id="Shape" fill="#004F9E"></path>
            </g>
        </g>
    </g>
</svg>