<?xml version="1.0" encoding="UTF-8"?>
<svg width="40px" height="40px" viewBox="0 0 40 40" version="1.1" xmlns="http://www.w3.org/2000/svg" xmlns:xlink="http://www.w3.org/1999/xlink">
    <!-- Generator: Sketch 50.2 (55047) - http://www.bohemiancoding.com/sketch -->
    <title>Icon phone</title>
    <desc>Created with Sketch.</desc>
    <defs></defs>
    <g id="Icon-phone" stroke="none" stroke-width="1" fill="none" fill-rule="evenodd">
        <circle id="Oval" stroke="#FFFFFF" cx="20" cy="20" r="20"></circle>
        <path d="M29.8571429,25.0357143 C29.8571429,25.2767869 29.8125004,25.5915159 29.7232143,25.9799107 C29.6339281,26.3683055 29.5401791,26.674106 29.4419643,26.8973214 C29.2544633,27.3437522 28.7098259,27.8169618 27.8080357,28.3169643 C26.9687458,28.7723237 26.138397,29 25.3169643,29 C25.0758917,29 24.8392869,28.9843752 24.6071429,28.953125 C24.3749988,28.9218748 24.118305,28.8660718 23.8370536,28.7857143 C23.5558022,28.7053567 23.3459828,28.6406252 23.2075893,28.5915179 C23.0691957,28.5424105 22.8214304,28.4508935 22.4642857,28.3169643 C22.1071411,28.183035 21.8883933,28.1026787 21.8080357,28.0758929 C20.9330313,27.7633913 20.1517892,27.3928593 19.4642857,26.9642857 C18.3303515,26.258925 17.1517918,25.294649 15.9285714,24.0714286 C14.705351,22.8482082 13.741075,21.6696485 13.0357143,20.5357143 C12.6071407,19.8482108 12.2366087,19.0669687 11.9241071,18.1919643 C11.8973213,18.1116067 11.816965,17.8928589 11.6830357,17.5357143 C11.5491065,17.1785696 11.4575895,16.9308043 11.4084821,16.7924107 C11.3593748,16.6540172 11.2946433,16.4441978 11.2142857,16.1629464 C11.1339282,15.881695 11.0781252,15.6250012 11.046875,15.3928571 C11.0156248,15.1607131 11,14.9241083 11,14.6830357 C11,13.861603 11.2276763,13.0312542 11.6830357,12.1919643 C12.1830382,11.2901741 12.6562478,10.7455367 13.1026786,10.5580357 C13.325894,10.4598209 13.6316945,10.3660719 14.0200893,10.2767857 C14.4084841,10.1874996 14.7232131,10.1428571 14.9642857,10.1428571 C15.0892863,10.1428571 15.1830354,10.1562499 15.2455357,10.1830357 C15.4062508,10.2366074 15.6428556,10.5758897 15.9553571,11.2008929 C16.0535719,11.3705366 16.1874992,11.6116056 16.3571429,11.9241071 C16.5267866,12.2366087 16.683035,12.520088 16.8258929,12.7745536 C16.9687507,13.0290191 17.1071422,13.267856 17.2410714,13.4910714 C17.2678573,13.5267859 17.3459815,13.6383919 17.4754464,13.8258929 C17.6049114,14.0133938 17.7008925,14.1718744 17.7633929,14.3013393 C17.8258932,14.4308042 17.8571429,14.5580351 17.8571429,14.6830357 C17.8571429,14.861608 17.729912,15.0848201 17.4754464,15.3526786 C17.2209809,15.6205371 16.9441979,15.8660703 16.6450893,16.0892857 C16.3459806,16.3125011 16.0691977,16.5491059 15.8147321,16.7991071 C15.5602666,17.0491084 15.4330357,17.2544635 15.4330357,17.4151786 C15.4330357,17.4955361 15.4553569,17.5959815 15.5,17.7165179 C15.5446431,17.8370542 15.5825891,17.9285711 15.6138393,17.9910714 C15.6450894,18.0535717 15.7075888,18.1607135 15.8013393,18.3125 C15.8950898,18.4642865 15.9464285,18.5491071 15.9553571,18.5669643 C16.633932,19.7901847 17.4107099,20.8392813 18.2857143,21.7142857 C19.1607187,22.5892901 20.2098153,23.366068 21.4330357,24.0446429 C21.4508929,24.0535715 21.5357135,24.1049102 21.6875,24.1986607 C21.8392865,24.2924112 21.9464283,24.3549106 22.0089286,24.3861607 C22.0714289,24.4174109 22.1629458,24.4553569 22.2834821,24.5 C22.4040185,24.5446431 22.5044639,24.5669643 22.5848214,24.5669643 C22.7455365,24.5669643 22.9508916,24.4397334 23.2008929,24.1852679 C23.4508941,23.9308023 23.6874989,23.6540194 23.9107143,23.3549107 C24.1339297,23.0558021 24.3794629,22.7790191 24.6473214,22.5245536 C24.9151799,22.270088 25.138392,22.1428571 25.3169643,22.1428571 C25.4419649,22.1428571 25.5691958,22.1741068 25.6986607,22.2366071 C25.8281256,22.2991075 25.9866062,22.3950886 26.1741071,22.5245536 C26.3616081,22.6540185 26.4732141,22.7321427 26.5089286,22.7589286 C26.732144,22.8928578 26.9709809,23.0312493 27.2254464,23.1741071 C27.479912,23.316965 27.7633913,23.4732134 28.0758929,23.6428571 C28.3883944,23.8125008 28.6294634,23.9464281 28.7991071,24.0446429 C29.4241103,24.3571444 29.7633926,24.5937492 29.8169643,24.7544643 C29.8437501,24.8169646 29.8571429,24.9107137 29.8571429,25.0357143 Z" id="" fill="#FFFFFF"></path>
    </g>
</svg>